<?xml version="1.0" encoding="UTF-8"?>
<svg version="1.1" xmlns="http://www.w3.org/2000/svg" width="500" height="500">
<path d="M0 0 C165 0 330 0 500 0 C500 165 500 330 500 500 C335 500 170 500 0 500 C0 335 0 170 0 0 Z " fill="#B08CCE" transform="translate(0,0)"/>
<path d="M0 0 C1.35100676 -0.00599193 2.70201012 -0.012799 4.05300903 -0.02035522 C7.70826083 -0.03795844 11.36341886 -0.04270829 15.01870894 -0.0439868 C17.30787032 -0.04541259 19.59700819 -0.04969036 21.88616371 -0.05498123 C29.88815436 -0.07346529 37.89007856 -0.0816542 45.89208984 -0.08007812 C53.32488589 -0.07887834 60.7573908 -0.09995272 68.19011325 -0.13156545 C74.59210123 -0.15781377 80.99399466 -0.1684418 87.39603597 -0.16716731 C91.21044466 -0.16666002 95.02459461 -0.17221217 98.8389492 -0.19352341 C102.43177611 -0.21304996 106.02410139 -0.21293343 109.61694717 -0.19849014 C111.54451716 -0.19543986 113.47208797 -0.21197856 115.39958191 -0.22937012 C129.58146061 -0.12819938 142.27217307 4.85646253 152.84692383 14.40380859 C165.43457601 27.67855969 169.93259622 40.49111408 169.94238281 58.44506836 C169.95070633 59.74862778 169.95902985 61.05218719 169.96760559 62.39524841 C169.98943874 65.95352841 169.99833493 69.51172253 170.00343204 73.07006192 C170.00709051 75.30079155 170.01333835 77.5314992 170.02043343 79.76222038 C170.04489422 87.5666692 170.05797141 95.37105193 170.06152344 103.17553711 C170.06515067 110.41352134 170.09499599 117.65107947 170.13692802 124.88893372 C170.17180553 131.13133049 170.18707491 137.37358732 170.18776947 143.6160807 C170.18855672 147.33171691 170.19703615 151.04691886 170.22576714 154.76245308 C170.36681469 174.21171308 170.4691551 190.50027493 157.63598633 206.29052734 C157.01336914 207.11423828 156.39075195 207.93794922 155.74926758 208.78662109 C147.50251345 218.55772903 135.15142531 225.2856329 122.44419861 226.62760162 C113.81660969 227.14449424 105.18152631 227.09527587 96.54264736 227.03061724 C92.75534207 227.00769228 88.96808003 227.01622527 85.1807251 227.02011108 C78.82969283 227.02186699 72.4790916 226.99992081 66.12817383 226.96289062 C58.81612665 226.92049693 51.50470809 226.91355692 44.19256282 226.92601454 C37.11249658 226.93745266 30.03264858 226.92605581 22.95261383 226.90366745 C19.95928098 226.89444976 16.96608323 226.89259498 13.97274017 226.89683914 C10.44289738 226.90064175 6.91368308 226.88412073 3.38398361 226.85271835 C1.49234722 226.8403661 -0.39938497 226.84718906 -2.29104614 226.8548584 C-15.13408031 226.69723461 -25.01862457 222.72473382 -35.36401367 215.29052734 C-35.99952148 214.85224609 -36.6350293 214.41396484 -37.28979492 213.96240234 C-46.3202481 207.0701944 -52.35179881 196.03050772 -55.36401367 185.29052734 C-55.53937464 184.69843947 -55.7147356 184.1063516 -55.89541054 183.49632168 C-56.45994551 180.83895992 -56.50272519 178.37577438 -56.51791382 175.65797424 C-56.53081451 173.93617699 -56.53081451 173.93617699 -56.54397583 172.17959595 C-56.54823578 170.92399872 -56.55249573 169.66840149 -56.55688477 168.37475586 C-56.56479096 167.03566783 -56.57306023 165.69658189 -56.58166504 164.35749817 C-56.60783962 159.9614972 -56.62319462 155.56548697 -56.63745117 151.16943359 C-56.64281396 149.65165642 -56.64819147 148.13387929 -56.65358353 146.61610222 C-56.67521135 140.29629751 -56.69394278 133.97649528 -56.70520592 127.65666294 C-56.72140946 118.6262887 -56.75450021 109.59634713 -56.81160676 100.56613594 C-56.85045907 94.2032722 -56.86985695 87.8405234 -56.87512648 81.47754425 C-56.87876099 77.68476383 -56.890576 73.89244534 -56.92322922 70.09979439 C-56.95357839 66.52336952 -56.959528 62.94767949 -56.94784546 59.37115288 C-56.94752379 57.45443655 -56.97181306 55.53776374 -56.9972229 53.62121582 C-56.90466669 40.56703669 -52.31986735 30.45840576 -44.36401367 20.29052734 C-43.62151367 19.25927734 -42.87901367 18.22802734 -42.11401367 17.16552734 C-29.97455629 4.47427644 -17.07708855 -0.01232602 0 0 Z " fill="#E29A9A" transform="translate(193.364013671875,136.70947265625)"/>
<path d="M0 0 C1.63974037 -0.00856522 1.63974037 -0.00856522 3.31260681 -0.01730347 C4.49712936 -0.01842133 5.68165192 -0.01953918 6.90206909 -0.02069092 C8.79104668 -0.02813828 8.79104668 -0.02813828 10.71818542 -0.03573608 C14.16274038 -0.04880603 17.60727589 -0.05529478 21.05185175 -0.05974674 C23.20917041 -0.06268706 25.36648387 -0.0667937 27.5237999 -0.07125092 C34.28877267 -0.08491347 41.05373342 -0.09458541 47.81871903 -0.09845281 C55.59922517 -0.10292647 63.37955502 -0.12044733 71.1600076 -0.1494534 C77.19254156 -0.17115372 83.22502623 -0.18116157 89.25759876 -0.18249393 C92.85177526 -0.18353627 96.44578578 -0.18932091 100.03992081 -0.20731354 C104.05787897 -0.22703754 108.07547387 -0.22247222 112.09347534 -0.21600342 C113.26585251 -0.2252182 114.43822968 -0.23443298 115.64613342 -0.243927 C130.98237925 -0.16698664 145.22716338 4.43867183 156.55001831 15.14044189 C169.0967976 28.80842274 173.70778467 42.74855363 173.64474487 60.95294189 C173.65000183 62.83517456 173.65000183 62.83517456 173.65536499 64.75543213 C173.6626234 68.172836 173.66097245 71.58999544 173.65460682 75.00738525 C173.64951221 78.59861559 173.65424783 82.18983611 173.65737915 85.78106689 C173.66100876 91.8097316 173.65624616 97.83834716 173.646698 103.86700439 C173.63581537 110.81812479 173.63934166 117.76912781 173.65035081 124.72024536 C173.6594524 130.70863849 173.66069496 136.69699647 173.65547347 142.68539429 C173.65236952 146.25311199 173.65190081 149.82077469 173.65854645 153.38848877 C173.66544315 157.3683522 173.65586036 161.34808616 173.64474487 165.32794189 C173.64879333 166.49704102 173.6528418 167.66614014 173.65701294 168.8706665 C173.57545788 184.6795323 168.83060663 198.02910811 158.01095581 209.70294189 C157.14470581 210.50731689 156.27845581 211.31169189 155.38595581 212.14044189 C154.82392456 212.69602783 154.26189331 213.25161377 153.68283081 213.82403564 C148.50916831 218.71377765 143.08171318 221.75318774 136.38595581 224.14044189 C135.70682129 224.39036392 135.02768677 224.64028595 134.32797241 224.89778137 C125.15850824 227.85456271 116.11224521 227.52111089 106.59298706 227.43341064 C104.79267228 227.42780478 102.99235288 227.42353937 101.19203186 227.42054749 C96.48859685 227.40917658 91.78544652 227.37977754 87.0821228 227.34643555 C82.26872608 227.31556607 77.45528268 227.30200632 72.64181519 227.28692627 C63.22307137 227.25489927 53.8045374 227.20379848 44.38595581 227.14044189 C44.38048737 226.26293022 44.38048737 226.26293022 44.37490845 225.36769104 C44.3327389 219.21790392 44.26315845 213.06883941 44.17843628 206.91949463 C44.15040209 204.63180813 44.12910131 202.34402793 44.11495972 200.05621338 C43.97750731 179.06723093 41.73952111 162.23423446 26.66329956 146.35528564 C13.89437214 133.93679191 -0.53165804 129.93376089 -17.96951294 129.72637939 C-18.99716263 129.70701324 -20.02481232 129.68764709 -21.08360291 129.66769409 C-24.32283579 129.60855355 -27.56210549 129.5617782 -30.80154419 129.51544189 C-33.01575125 129.47720166 -35.2299444 129.43814655 -37.44412231 129.39825439 C-42.83397152 129.30290715 -48.22390656 129.217674 -53.61404419 129.14044189 C-53.68384826 118.78664581 -53.73700892 108.4329066 -53.76948071 98.07892227 C-53.78507303 93.27007935 -53.80619244 88.46139857 -53.84036255 83.65264893 C-53.87318714 79.00365374 -53.89094546 74.35481358 -53.89867592 69.70571136 C-53.90417827 67.94047357 -53.91492187 66.17524333 -53.93123436 64.41007233 C-54.1060186 44.69553812 -50.28786444 29.22564738 -36.23660278 14.66827393 C-26.2532113 5.26772263 -13.69821443 0.04312266 0 0 Z " fill="#91CF4F" transform="translate(322.6140441894531,3.85955810546875)"/>
<path d="M0 0 C1.27984772 -0.00540298 2.55969543 -0.01080597 3.87832642 -0.01637268 C7.34743755 -0.03017904 10.81604448 -0.01926441 14.28512692 -0.00266147 C17.94032629 0.01133227 21.59550057 0.00471295 25.25071716 0.00120544 C31.38418571 -0.00148515 37.51745727 0.01188028 43.65087891 0.03515625 C50.71228081 0.06177067 57.77335396 0.06350501 64.83478886 0.05176789 C71.6675955 0.04093873 78.50028482 0.04721649 85.3330822 0.06132317 C88.22313189 0.06703744 91.11309442 0.06703668 94.00314522 0.06225777 C98.04914957 0.05654006 102.09467491 0.07592988 106.140625 0.09765625 C107.32070633 0.0931546 108.50078766 0.08865295 109.71662903 0.08401489 C125.07484772 0.22022432 139.32297224 4.77739662 150.66967773 15.50170898 C161.55206516 27.35656508 167.89272653 40.81943688 167.73266602 56.95898438 C167.73295807 57.75033783 167.73325012 58.54169128 167.73355103 59.35702515 C167.73217257 61.93792201 167.7166824 64.51851965 167.70092773 67.09936523 C167.69719231 68.90254051 167.69434784 70.70571783 167.69235229 72.50889587 C167.6847575 77.22872636 167.66514519 81.94843153 167.64294434 86.66821289 C167.62239591 91.49485581 167.61333143 96.3215192 167.60327148 101.14819336 C167.58189497 110.59941995 167.54780981 120.050554 167.50561523 129.50170898 C166.91616623 129.50757523 166.32671722 129.51344147 165.71940613 129.51948547 C159.53756907 129.58383817 153.35623263 129.66836136 147.17480469 129.76416016 C144.8734399 129.79724197 142.57199724 129.825325 140.27050781 129.84814453 C136.94619825 129.8819999 133.62259168 129.93433015 130.29858398 129.98999023 C128.77602242 129.99957512 128.77602242 129.99957512 127.22270203 130.00935364 C111.15980496 130.33373241 97.53433636 136.40737318 86.19702148 147.66186523 C70.69751397 164.0162077 69.60066582 181.51300529 69.63061523 203.00170898 C69.61245286 205.38584541 69.59163921 207.76996318 69.56811523 210.15405273 C69.51674249 215.93674556 69.49799041 221.71880838 69.50561523 227.50170898 C58.89108365 227.59476523 48.27665059 227.66565375 37.66179276 227.70895767 C32.73181911 227.72975104 27.80212644 227.75791633 22.87231445 227.8034668 C18.10659814 227.84722089 13.34115053 227.87090799 8.57524872 227.88121796 C6.76533535 227.88855663 4.95543515 227.90288606 3.14563751 227.92462921 C-15.624026 228.14097425 -30.54609442 223.66132379 -44.49438477 210.50170898 C-56.32170559 197.22485861 -59.63907191 183.19981421 -59.65551758 165.96386719 C-59.66048248 164.71415634 -59.66544739 163.4644455 -59.67056274 162.17686462 C-59.68262595 158.76334352 -59.69011764 155.3498833 -59.6945734 151.9363482 C-59.69751601 149.79795273 -59.70162301 147.65956248 -59.70607758 145.52116966 C-59.71973406 138.8138654 -59.72940954 132.10657324 -59.73327947 125.39925605 C-59.73775472 117.68780993 -59.75528552 109.97654154 -59.78428006 102.26514941 C-59.80598073 96.28355026 -59.81598821 90.3020008 -59.81732059 84.32036275 C-59.8183627 80.75749965 -59.82414263 77.19480403 -59.8421402 73.6319828 C-59.86186553 69.65005541 -59.85729874 65.66849454 -59.85083008 61.68652344 C-59.86004486 60.52506805 -59.86925964 59.36361267 -59.87875366 58.16696167 C-59.79203297 41.03476302 -53.95859854 27.29977105 -42.09936523 15.02514648 C-30.34922593 3.87198718 -15.91944039 -0.13064617 0 0 Z " fill="#F5CD45" transform="translate(63.494384765625,3.498291015625)"/>
<path d="M0 0 C1.84229411 0.00747755 3.68459628 0.01316331 5.52690125 0.01715088 C10.33233318 0.03228819 15.13726718 0.07146457 19.94250488 0.1159668 C24.86329415 0.1571791 29.78416533 0.17521686 34.70507812 0.1953125 C44.32834155 0.23797265 53.95123844 0.30607625 63.57421875 0.390625 C63.57968719 1.26813667 63.57968719 1.26813667 63.58526611 2.16337585 C63.62743566 8.31316298 63.69701611 14.46222748 63.78173828 20.61157227 C63.80977247 22.89925876 63.83107325 25.18703896 63.84521484 27.47485352 C63.81339685 45.33875901 63.81339685 45.33875901 68.57421875 62.390625 C69.10970337 63.73133057 69.10970337 63.73133057 69.65600586 65.09912109 C74.68744164 77.17607002 86.16526442 87.70147321 97.984375 92.88671875 C106.55719612 96.33050565 106.55719612 96.33050565 115.59643555 97.59594727 C117.12768318 97.6258651 117.12768318 97.6258651 118.68986511 97.65638733 C119.789944 97.67309982 120.89002289 97.68981232 122.0234375 97.70703125 C123.71506767 97.7382029 123.71506767 97.7382029 125.44087219 97.77000427 C129.04775835 97.83545347 132.65471804 97.89436344 136.26171875 97.953125 C138.70508577 97.99631461 141.14844531 98.03992904 143.59179688 98.08398438 C149.58585949 98.19113016 155.57999546 98.29290529 161.57421875 98.390625 C161.62067757 108.66587369 161.6561566 118.94109715 161.67784309 129.21642971 C161.68825454 133.98831851 161.70236531 138.76013514 161.72509766 143.53198242 C161.74692044 148.14205186 161.7588072 152.75205213 161.76397324 157.36216927 C161.76765211 159.11591746 161.77483582 160.86966212 161.78567886 162.62338066 C161.89435285 180.93793301 159.02436424 196.11546803 146.19921875 209.953125 C145.33296875 210.7575 144.46671875 211.561875 143.57421875 212.390625 C143.0121875 212.94621094 142.45015625 213.50179687 141.87109375 214.07421875 C130.40844465 224.90782003 115.61009897 227.85280034 100.30688477 227.79467773 C99.0273291 227.80154099 97.74777344 227.80840424 96.42944336 227.81547546 C92.95205302 227.83326701 89.47491693 227.83226532 85.99749494 227.82653308 C83.08028065 227.82342093 80.16311379 227.82955596 77.24590629 227.83557183 C70.35717459 227.84956929 63.46856702 227.84809566 56.57983398 227.83666992 C49.5036604 227.82519173 42.42786598 227.83927004 35.35174233 227.8660664 C29.246898 227.88830799 23.14217195 227.89484189 17.03729004 227.88898998 C13.40404062 227.88563952 9.77103413 227.8879068 6.13781929 227.90524101 C2.08195548 227.9237512 -1.97318263 227.90943667 -6.02905273 227.89233398 C-7.80388786 227.90683594 -7.80388786 227.90683594 -9.61457825 227.92163086 C-25.4121426 227.78288124 -39.02691511 221.1449672 -50.42578125 210.390625 C-62.25310208 197.11377462 -65.5704684 183.08873022 -65.58691406 165.8527832 C-65.59187897 164.60307236 -65.59684387 163.35336151 -65.60195923 162.06578064 C-65.61402244 158.65225953 -65.62151413 155.23879932 -65.62596989 151.82526422 C-65.62891249 149.68686875 -65.63301949 147.5484785 -65.63747406 145.41008568 C-65.65113055 138.70278142 -65.66080602 131.99548926 -65.66467595 125.28817207 C-65.6691512 117.57672594 -65.686682 109.86545755 -65.71567655 102.15406543 C-65.73737722 96.17246627 -65.74738469 90.19091682 -65.74871707 84.20927876 C-65.74975919 80.64641567 -65.75553912 77.08372005 -65.77353668 73.52089882 C-65.79326201 69.53897142 -65.78869522 65.55741055 -65.78222656 61.57543945 C-65.79144135 60.41398407 -65.80065613 59.25252869 -65.81015015 58.05587769 C-65.72342945 40.92367904 -59.88999502 27.18868706 -48.03076172 14.9140625 C-34.17607007 1.76327518 -18.21471431 -0.21949328 0 0 Z " fill="#9AC1EE" transform="translate(69.42578125,268.609375)"/>
<path d="M0 0 C165 0 330 0 500 0 C500 165 500 330 500 500 C335 500 170 500 0 500 C0 335 0 170 0 0 Z M26 15 C25.35417969 15.46148437 24.70835938 15.92296875 24.04296875 16.3984375 C12.78489812 25.19142269 6.59994712 38.29242989 4 52 C3.61451662 56.391151 3.59861035 60.7470916 3.62768555 65.15307617 C3.62403488 66.40833603 3.62038422 67.66359589 3.61662292 68.95689392 C3.60995993 72.36184208 3.6165496 75.76623263 3.62995505 79.17112517 C3.64137705 82.7543267 3.63715401 86.33751606 3.63520813 89.92073059 C3.63432886 95.93149526 3.64533108 101.94214635 3.66381836 107.95288086 C3.6850093 114.88191698 3.68848749 121.81078729 3.6822564 128.73984927 C3.67654494 135.43649029 3.68222749 142.13307351 3.69342995 148.82970619 C3.69804944 151.666396 3.6989614 154.50305014 3.6968441 157.33974266 C3.6945957 161.30492613 3.70912934 165.26995455 3.7253418 169.23510742 C3.72286438 170.39949341 3.72038696 171.56387939 3.71783447 172.7635498 C3.81146886 187.15429615 7.62840508 199.85475284 17 211 C17.92425781 212.22396484 17.92425781 212.22396484 18.8671875 213.47265625 C26.48914173 222.50453242 40.07077321 230.08589607 51.96113396 231.18054581 C54.11458282 231.24410391 56.25952876 231.24767885 58.41381836 231.22705078 C59.2243869 231.22734283 60.03495544 231.22763489 60.87008667 231.22793579 C63.52678448 231.22655184 66.18319544 231.21103505 68.83984375 231.1953125 C70.69071805 231.19157904 72.54159433 231.18873364 74.39247131 231.18673706 C79.24713668 231.17912682 84.10168104 231.15950087 88.95629883 231.1373291 C93.91681278 231.11681432 98.87734642 231.10772333 103.83789062 231.09765625 C113.55864671 231.07625241 123.27931326 231.04214813 133 231 C132.99920441 230.3965979 132.99840881 229.7931958 132.99758911 229.17150879 C132.99512445 222.81028633 133.03489276 216.45026106 133.09765625 210.08935547 C133.11566676 207.7251544 133.12341233 205.3608494 133.12011719 202.99658203 C133.1035883 183.4677032 134.84101594 168.38668608 148 153 C148.53109375 152.35804688 149.0621875 151.71609375 149.609375 151.0546875 C158.28678345 141.47517223 171.49246464 134.67539462 184.46150208 133.84178162 C185.32087875 133.82623734 186.18025543 133.81069305 187.06567383 133.79467773 C188.04631302 133.77473251 189.02695221 133.75478729 190.03730774 133.73423767 C191.0833165 133.71752518 192.12932526 133.70081268 193.20703125 133.68359375 C194.28756271 133.66281265 195.36809418 133.64203156 196.48136902 133.62062073 C199.92501611 133.55535964 203.36873795 133.49634925 206.8125 133.4375 C209.15039828 133.39429249 211.48828907 133.35067749 213.82617188 133.30664062 C219.55070278 133.19970228 225.27530765 133.09789273 231 133 C231.06980407 122.64620392 231.12296473 112.2924647 231.15543652 101.93848038 C231.17102884 97.12963746 231.19214825 92.32095667 231.22631836 87.51220703 C231.25914295 82.86321185 231.27690127 78.21437168 231.28463173 73.56526947 C231.29013408 71.80003167 231.30087768 70.03480143 231.31719017 68.26963043 C231.48570302 49.26246808 228.10062387 33.4749745 214.44140625 19.21484375 C204.25911207 9.97746647 191.12854201 3.91441716 177.3167572 3.85282898 C176.20821381 3.84567368 175.09967041 3.83851837 173.95753479 3.83114624 C172.75588181 3.82845734 171.55422882 3.82576843 170.31616211 3.82299805 C169.03894287 3.81642685 167.76172363 3.80985565 166.44580078 3.80308533 C162.22299434 3.78213692 158.00018793 3.77168945 153.77734375 3.76171875 C152.31713913 3.75766731 150.85693468 3.75355028 149.39673042 3.74936867 C142.53191285 3.73033478 135.66710588 3.71610174 128.80226701 3.7077567 C120.9090896 3.69800019 113.01619379 3.67171483 105.12311548 3.63125581 C99.00224522 3.60097062 92.88145511 3.58627603 86.76051146 3.58297569 C83.11426574 3.58063874 79.46832144 3.57185757 75.82215691 3.54651451 C71.74446139 3.51862847 67.6673848 3.52310252 63.58959961 3.5300293 C62.40211624 3.51721924 61.21463287 3.50440918 59.99116516 3.49121094 C46.96229933 3.57139484 36.47863639 7.33928998 26 15 Z M291 15 C289.96552734 15.72703125 289.96552734 15.72703125 288.91015625 16.46875 C277.86682401 25.08304997 271.30311649 38.45572924 269 52 C268.49265468 58.28082881 268.64885511 64.59539805 268.70703125 70.890625 C268.71263848 72.68951053 268.71690324 74.4884007 268.71989441 76.28729248 C268.73125457 80.98249342 268.76064389 85.6774083 268.79400635 90.37249756 C268.82489946 95.17928195 268.83844054 99.98611333 268.85351562 104.79296875 C268.88552356 114.19543699 268.93661076 123.59769455 269 133 C269.84658928 133.01213028 269.84658928 133.01213028 270.71028137 133.02450562 C276.63250673 133.1111667 282.55442077 133.21068983 288.47631836 133.31738281 C290.68069187 133.35545322 292.88512288 133.39034259 295.08959961 133.421875 C298.27478461 133.46800576 301.45958119 133.52591683 304.64453125 133.5859375 C305.61582474 133.59748871 306.58711823 133.60903992 307.58784485 133.62094116 C317.11190237 133.82222944 326.17287786 134.82069066 334.5625 139.5625 C335.19599365 139.91183594 335.8294873 140.26117188 336.48217773 140.62109375 C351.01288107 148.94015649 360.23530004 161.54739691 365.05517578 177.49023438 C366.34301276 182.79410923 366.35314732 188.06553702 366.4140625 193.5 C366.43342865 194.57628662 366.4527948 195.65257324 366.4727478 196.76147461 C366.53217541 200.17423765 366.57878126 203.58703509 366.625 207 C366.66321367 209.32423286 366.70226734 211.64845207 366.7421875 213.97265625 C366.83784642 219.64831568 366.92300005 225.32405839 367 231 C377.28463396 231.11661122 387.56910683 231.2050752 397.85427094 231.25906086 C402.63176574 231.28499076 407.40880336 231.3200792 412.18603516 231.37719727 C416.809142 231.4321173 421.43181329 231.46154486 426.05522156 231.47438622 C427.80603377 231.48351981 429.55682616 231.50135049 431.30744934 231.52865028 C446.95552929 231.76263632 460.96355365 229.41925732 474 220 C474.62003906 219.56171875 475.24007812 219.1234375 475.87890625 218.671875 C486.06390427 210.7426148 494.11060408 197.05755952 495.80649567 184.2099514 C496.23584297 179.30651252 496.15643981 174.38067631 496.16113281 169.4621582 C496.16609772 168.21244736 496.17106262 166.96273651 496.17617798 165.67515564 C496.18824119 162.26163453 496.19573288 158.84817432 496.20018864 155.43463922 C496.20313124 153.29624375 496.20723824 151.1578535 496.21169281 149.01946068 C496.2253493 142.31215642 496.23502477 135.60486426 496.2388947 128.89754707 C496.24336995 121.18610094 496.26090075 113.47483255 496.2898953 105.76344043 C496.31159597 99.78184127 496.32160344 93.80029182 496.32293582 87.81865376 C496.32397794 84.25579067 496.32975787 80.69309505 496.34775543 77.13027382 C496.36748076 73.14834642 496.36291397 69.16678555 496.35644531 65.18481445 C496.37026749 63.44263138 496.37026749 63.44263138 496.3843689 61.66525269 C496.30137077 45.26847042 490.86196905 31.13783402 479.44140625 19.21484375 C469.29518318 10.01019018 456.16538988 3.90297494 442.39268494 3.85955811 C440.7551123 3.85099289 440.7551123 3.85099289 439.0844574 3.84225464 C437.31003014 3.84057785 437.31003014 3.84057785 435.49975586 3.83886719 C433.61318771 3.83141983 433.61318771 3.83141983 431.68850708 3.82382202 C428.24801708 3.81075133 424.80754655 3.804263 421.36703563 3.79981136 C419.21171928 3.79687074 417.05640814 3.79276401 414.90109444 3.78830719 C408.14092502 3.77464349 401.38076764 3.76497251 394.62058538 3.7611053 C386.84857919 3.75663348 379.07674964 3.73912175 371.30479711 3.7101047 C365.27734303 3.68839181 359.24993828 3.67839585 353.22244555 3.67706418 C349.63214942 3.67602258 346.04201958 3.6702545 342.45176506 3.65224457 C338.4364055 3.63249335 334.42140891 3.63709081 330.40600586 3.64355469 C329.23722397 3.6343399 328.06844208 3.62512512 326.86424255 3.6156311 C312.75587968 3.68632376 302.41848227 6.92161798 291 15 Z M148.6796875 156.87890625 C140.13652611 168.42395479 136.23087692 179.49787202 136.36889648 193.9375 C136.36374179 195.27792299 136.35644894 196.61833915 136.34721375 197.95874023 C136.3288879 201.55816357 136.34151691 205.15683472 136.36130404 208.75622559 C136.37784962 212.54842812 136.36885578 216.34058889 136.36378479 220.1328125 C136.3592814 226.49751616 136.37502394 232.86192426 136.40307617 239.2265625 C136.43512025 246.55271622 136.43510663 253.87833729 136.4178614 261.20452881 C136.40191864 268.29364606 136.40877936 275.3825707 136.42579842 282.47167969 C136.43261582 285.46977969 136.43169182 288.46772281 136.42425346 291.46582031 C136.41651061 295.00545075 136.42897239 298.54448555 136.45610237 302.08401489 C136.46611212 303.97908175 136.45688736 305.87422079 136.44677734 307.76928711 C136.59100824 320.92049679 140.3375513 331.40262255 148 342 C148.721875 343.03125 149.44375 344.0625 150.1875 345.125 C158.09290749 354.03795942 169.34326693 360.5748146 181 363 C182.86886031 363.10038864 184.74085587 363.14768175 186.61236572 363.16062927 C187.75589508 363.1706749 188.89942444 363.18072052 190.0776062 363.19107056 C191.3284903 363.19690155 192.57937439 363.20273254 193.86816406 363.20874023 C195.20238487 363.21828443 196.53660323 363.22817584 197.87081909 363.23838806 C202.25239134 363.26973578 206.63398226 363.29004939 211.015625 363.30859375 C212.13719388 363.31353973 212.13719388 363.31353973 213.28142071 363.31858563 C220.34707235 363.3493874 227.4127285 363.37606995 234.47842789 363.39300442 C243.48184744 363.41484229 252.48466545 363.45666171 261.48784471 363.52644199 C267.83546521 363.57394571 274.18292509 363.59797357 280.53071761 363.6052013 C284.31195062 363.61012187 288.09250541 363.62485158 291.87354279 363.6649456 C320.13848888 364.0262419 320.13848888 364.0262419 344 350 C344.886875 349.175 345.77375 348.35 346.6875 347.5 C347.450625 346.675 348.21375 345.85 349 345 C349.48082031 344.50113281 349.96164062 344.00226563 350.45703125 343.48828125 C360.6273691 332.44252191 363.45812021 319.18343757 363.40405273 304.58666992 C363.41091599 303.27960587 363.41777924 301.97254181 363.42485046 300.62586975 C363.44267059 297.06777896 363.44163436 293.50993628 363.43590808 289.95181441 C363.43279899 286.96764106 363.43892788 283.9835142 363.44494683 280.99934751 C363.45895479 273.95094103 363.45746288 266.90265585 363.44604492 259.85424805 C363.43457612 252.6150916 363.44862685 245.37630619 363.4754414 238.13719863 C363.49769301 231.89308246 363.50421435 225.64908193 363.49836498 219.40492898 C363.49501563 215.68835675 363.49727375 211.97202202 363.51461601 208.25548363 C363.53314545 204.10392645 363.51880147 199.95307716 363.50170898 195.80151367 C363.51137695 194.59226227 363.52104492 193.38301086 363.53100586 192.13711548 C363.41877847 179.03903592 359.64925076 168.54167815 352 158 C351.58878906 157.41605469 351.17757812 156.83210938 350.75390625 156.23046875 C343.47853188 146.68940687 330.75412692 139.17108431 319 137 C314.54034375 136.69833215 310.08869457 136.70625132 305.62011719 136.70947266 C304.26748791 136.7034808 302.91486204 136.69667374 301.5622406 136.68911743 C297.90292387 136.67151515 294.2437008 136.66676445 290.58434582 136.66548586 C288.29318212 136.6640602 286.00204193 136.65978273 283.71088409 136.65449142 C275.70356242 136.63600887 267.69630715 136.62781841 259.68896484 136.62939453 C252.2481966 136.63059483 244.80771895 136.60951008 237.36702418 136.5779072 C230.95995633 136.55167316 224.55298295 136.54103024 218.14586186 136.54230535 C214.32757284 136.54281298 210.50954216 136.53724127 206.69130707 136.51594925 C203.09602092 136.49644649 199.50123632 136.49652334 195.90593147 136.51098251 C193.97459072 136.51403813 192.04324926 136.49747797 190.11198425 136.48010254 C173.80455474 136.59657269 158.92918055 144.16194265 148.6796875 156.87890625 Z M26 280 C25.35417969 280.46148437 24.70835938 280.92296875 24.04296875 281.3984375 C12.78489812 290.19142269 6.59994712 303.29242989 4 317 C3.61451662 321.391151 3.59861035 325.7470916 3.62768555 330.15307617 C3.62403488 331.40833603 3.62038422 332.66359589 3.61662292 333.95689392 C3.60995993 337.36184208 3.6165496 340.76623263 3.62995505 344.17112517 C3.64137705 347.7543267 3.63715401 351.33751606 3.63520813 354.92073059 C3.63432886 360.93149526 3.64533108 366.94214635 3.66381836 372.95288086 C3.6850093 379.88191698 3.68848749 386.81078729 3.6822564 393.73984927 C3.67654494 400.43649029 3.68222749 407.13307351 3.69342995 413.82970619 C3.69804944 416.666396 3.6989614 419.50305014 3.6968441 422.33974266 C3.6945957 426.30492613 3.70912934 430.26995455 3.7253418 434.23510742 C3.72286438 435.39949341 3.72038696 436.56387939 3.71783447 437.7635498 C3.81146886 452.15429615 7.62840508 464.85475284 17 476 C17.92425781 477.22396484 17.92425781 477.22396484 18.8671875 478.47265625 C26.35416909 487.34459231 38.62150029 493.82160507 50 496 C54.24945181 496.30501576 58.4906639 496.30402424 62.74975586 496.30639648 C64.02230225 496.31472 65.29484863 496.32304352 66.60595703 496.33161926 C70.08378761 496.35347715 73.5615303 496.36235246 77.0394218 496.36744571 C79.22006868 496.37110251 81.40069302 496.37734965 83.58133125 496.3844471 C91.21186445 496.40892059 98.84232997 496.42198695 106.47290039 496.42553711 C113.54668577 496.42916098 120.62003424 496.45897867 127.69368643 496.50094169 C133.7951035 496.53584685 139.89637735 496.55108909 145.99789339 496.55178314 C149.62918475 496.55256974 153.26003143 496.56101741 156.89121819 496.58978081 C175.96848691 496.73157053 192.92568077 496.61421948 209 485 C209.62003906 484.56171875 210.24007812 484.1234375 210.87890625 483.671875 C220.72235933 476.00851555 228.39758699 463.10412035 230.5634613 450.7986908 C231.02285449 446.80112381 231.13350048 442.87790836 231.11352539 438.86157227 C231.11374443 437.68961052 231.11374443 437.68961052 231.1139679 436.49397278 C231.11327627 433.9347548 231.10551927 431.37561138 231.09765625 428.81640625 C231.0957894 427.03279154 231.09436676 425.24917632 231.09336853 423.46556091 C231.08956435 418.78848842 231.07975213 414.11144735 231.06866455 409.43438721 C231.05840516 404.65483017 231.05386123 399.87526802 231.04882812 395.09570312 C231.03812786 385.730455 231.02107682 376.36523012 231 367 C230.39215668 366.99857498 229.78431335 366.99714996 229.15805054 366.99568176 C222.7647533 366.97581708 216.37238944 366.92118974 209.97949219 366.84741211 C207.6016309 366.82438081 205.22366975 366.80987176 202.84570312 366.80444336 C182.17134214 366.74797977 165.78154405 364.54330214 150.1875 349.625 C140.9269794 339.80323573 134.04325932 326.82637348 133.79467773 313.04785156 C133.77473251 312.06713684 133.75478729 311.08642212 133.73423767 310.07598877 C133.70916893 308.4992337 133.70916893 308.4992337 133.68359375 306.890625 C133.66281265 305.80867859 133.64203156 304.72673218 133.62062073 303.61199951 C133.55527069 300.15806387 133.49630771 296.70405263 133.4375 293.25 C133.39430096 290.90754429 133.35068622 288.5650962 133.30664062 286.22265625 C133.19960417 280.4818506 133.09781074 274.74096985 133 269 C122.40273935 268.9068911 111.80557769 268.83602892 101.20798969 268.79275131 C96.28589127 268.77196925 91.36407485 268.74382518 86.44213867 268.69824219 C81.68290158 268.65444706 76.92393395 268.63079255 72.16451073 268.62049103 C70.35821485 268.61315959 68.55193196 268.59884483 66.74575233 268.57707977 C51.11519134 268.39639636 38.9417289 270.53857501 26 280 Z M367 269 C366.99635437 269.58500778 366.99270874 270.17001556 366.98895264 270.77275085 C366.94678309 276.92253798 366.87720264 283.07160248 366.79248047 289.22094727 C366.76444628 291.50863376 366.7431455 293.79641396 366.72900391 296.08422852 C366.59160391 317.06520869 364.36083428 333.92083373 349.2734375 349.78515625 C337.34339671 361.40772177 322.88582909 366.23039287 306.5 366.4140625 C304.88557007 366.44311172 304.88557007 366.44311172 303.23852539 366.4727478 C299.82576235 366.53217541 296.41296491 366.57878126 293 366.625 C290.67576714 366.66321367 288.35154793 366.70226734 286.02734375 366.7421875 C280.35168432 366.83784642 274.67594161 366.92300005 269 367 C268.95354118 377.27524869 268.91806215 387.55047215 268.89637566 397.82580471 C268.88596421 402.59769351 268.87185344 407.36951014 268.84912109 412.14135742 C268.82729831 416.75142686 268.81541155 421.36142713 268.81024551 425.97154427 C268.80656664 427.72529246 268.79938293 429.47903712 268.78853989 431.23275566 C268.6885506 448.08369775 270.78702564 462.66487704 282 476 C282.92425781 477.22396484 282.92425781 477.22396484 283.8671875 478.47265625 C291.35416909 487.34459231 303.62150029 493.82160507 315 496 C319.24945181 496.30501576 323.4906639 496.30402424 327.74975586 496.30639648 C329.02230225 496.31472 330.29484863 496.32304352 331.60595703 496.33161926 C335.08378761 496.35347715 338.5615303 496.36235246 342.0394218 496.36744571 C344.22006868 496.37110251 346.40069302 496.37734965 348.58133125 496.3844471 C356.21186445 496.40892059 363.84232997 496.42198695 371.47290039 496.42553711 C378.54668577 496.42916098 385.62003424 496.45897867 392.69368643 496.50094169 C398.7951035 496.53584685 404.89637735 496.55108909 410.99789339 496.55178314 C414.62918475 496.55256974 418.26003143 496.56101741 421.89121819 496.58978081 C440.96848691 496.73157053 457.92568077 496.61421948 474 485 C474.62003906 484.56171875 475.24007812 484.1234375 475.87890625 483.671875 C486.06390427 475.7426148 494.11060408 462.05755952 495.80649567 449.2099514 C496.23584297 444.30651252 496.15643981 439.38067631 496.16113281 434.4621582 C496.16609772 433.21244736 496.17106262 431.96273651 496.17617798 430.67515564 C496.18824119 427.26163453 496.19573288 423.84817432 496.20018864 420.43463922 C496.20313124 418.29624375 496.20723824 416.1578535 496.21169281 414.01946068 C496.2253493 407.31215642 496.23502477 400.60486426 496.2388947 393.89754707 C496.24336995 386.18610094 496.26090075 378.47483255 496.2898953 370.76344043 C496.31159597 364.78184127 496.32160344 358.80029182 496.32293582 352.81865376 C496.32397794 349.25579067 496.32975787 345.69309505 496.34775543 342.13027382 C496.36748076 338.14834642 496.36291397 334.16678555 496.35644531 330.18481445 C496.37026749 328.44263138 496.37026749 328.44263138 496.3843689 326.66525269 C496.2966049 309.32694349 490.29260948 295.83877521 478.46728516 283.42431641 C468.16817376 273.4268096 453.9297115 268.81784441 439.88330078 268.88647461 C439.09238541 268.88632858 438.30147003 268.88618256 437.48658752 268.8860321 C434.88946731 268.88672511 432.29242009 268.89448871 429.6953125 268.90234375 C427.8878483 268.9042101 426.08038359 268.90563298 424.2729187 268.90663147 C419.52842804 268.91043951 414.78396826 268.92025512 410.03948975 268.93133545 C405.19299741 268.94158645 400.34650006 268.94613698 395.5 268.95117188 C385.99998647 268.96187898 376.49999581 268.97893475 367 269 Z " fill="#050603" transform="translate(0,0)"/>
<path d="M0 0 C1.54163044 3.08326087 2.41656367 5.31957786 3.25 8.5625 C5.93922848 17.72479604 10.69886744 24.94873261 17 32 C17 32.66 17 33.32 17 34 C17.56589844 34.26167969 18.13179687 34.52335937 18.71484375 34.79296875 C21.19362873 36.10227569 23.31288857 37.64104242 25.5625 39.3125 C39.91985178 49.43221932 53.73144104 50.30209242 70.6953125 50.4140625 C72.49706889 50.43280069 74.29881676 50.45237602 76.10055542 50.4727478 C80.81204164 50.52379519 85.52355622 50.56356646 90.23516846 50.60089111 C95.05528624 50.64110372 99.87528883 50.69211682 104.6953125 50.7421875 C114.13013494 50.83862196 123.56500606 50.92212949 133 51 C133 60.9 133 70.8 133 81 C130.60911133 81.01458252 128.21822266 81.02916504 125.75488281 81.04418945 C117.81595506 81.09474297 109.87721919 81.16137348 101.93848038 81.23571491 C97.12973996 81.28026006 92.32108118 81.31955026 87.51220703 81.34643555 C82.86305629 81.3726278 78.21422243 81.41314025 73.56526947 81.46318626 C71.80009685 81.47974808 70.03486956 81.49132837 68.26963043 81.49761391 C49.19542703 81.57234165 32.34594033 84.91941316 18.17578125 98.6953125 C8.94325681 108.47482672 2.7667107 119.5059855 1 133 C0.67 133 0.34 133 0 133 C0 89.11 0 45.22 0 0 Z " fill="#FDFDFD" transform="translate(0,184)"/>
<path d="M0 0 C9.9 0 19.8 0 30 0 C30.01458252 2.42641846 30.02916504 4.85283691 30.04418945 7.3527832 C30.09470938 15.40347547 30.16133441 23.45397785 30.23571491 31.50448322 C30.28028817 36.38163385 30.3195725 41.25870345 30.34643555 46.13598633 C30.37259934 50.84996939 30.41309263 55.56363843 30.46318626 60.27742577 C30.47976705 62.0685451 30.49133569 63.85971863 30.49761391 65.6509037 C30.57010593 84.44566428 34.12531938 100.86585883 47.6953125 114.82421875 C57.47482672 124.05674319 68.5059855 130.2332893 82 132 C82 132.33 82 132.66 82 133 C38.11 133 -5.78 133 -51 133 C-51 132.67 -51 132.34 -51 132 C-50.36835938 131.86464844 -49.73671875 131.72929687 -49.0859375 131.58984375 C-32.39432579 127.57327436 -18.30060749 118.64447732 -9 104 C-3.62348133 94.0168106 -0.71443536 84.76622233 -0.68115234 73.45092773 C-0.66608391 72.2492672 -0.66608391 72.2492672 -0.65071106 71.02333069 C-0.6201453 68.41009148 -0.60291893 65.7969534 -0.5859375 63.18359375 C-0.56720437 61.35798793 -0.54762939 59.53239058 -0.5272522 57.70680237 C-0.47615145 52.92789727 -0.43640834 48.14896417 -0.39910889 43.36993408 C-0.35893019 38.48288166 -0.30790142 33.5959435 -0.2578125 28.70898438 C-0.16131465 19.13939562 -0.07783121 9.5697588 0 0 Z " fill="#FDFDFD" transform="translate(235,367)"/>
<path d="M0 0 C0.33 0 0.66 0 1 0 C1 43.89 1 87.78 1 133 C0.67 133 0.34 133 0 133 C-0.13535156 132.21238281 -0.27070313 131.42476562 -0.41015625 130.61328125 C-2.78870893 118.57808955 -7.76888331 109.03415247 -16 100 C-16 99.34 -16 98.68 -16 98 C-16.56589844 97.73832031 -17.13179688 97.47664063 -17.71484375 97.20703125 C-20.19362873 95.89772431 -22.31288857 94.35895758 -24.5625 92.6875 C-35.0393434 85.29208113 -45.77805583 81.71871725 -58.54907227 81.68115234 C-59.35017929 81.67110672 -60.15128632 81.6610611 -60.97666931 81.65071106 C-63.58990852 81.6201453 -66.2030466 81.60291893 -68.81640625 81.5859375 C-70.64201207 81.56720437 -72.46760942 81.54762939 -74.29319763 81.5272522 C-79.07210273 81.47615145 -83.85103583 81.43640834 -88.63006592 81.39910889 C-93.51711834 81.35893019 -98.4040565 81.30790142 -103.29101562 81.2578125 C-112.86060438 81.16131465 -122.4302412 81.07783121 -132 81 C-132 71.1 -132 61.2 -132 51 C-128.36037231 50.97812622 -128.36037231 50.97812622 -124.6472168 50.95581055 C-116.59652453 50.90529062 -108.54602215 50.83866559 -100.49551678 50.76428509 C-95.61836615 50.71971183 -90.74129655 50.6804275 -85.86401367 50.65356445 C-81.15003061 50.62740066 -76.43636157 50.58690737 -71.72257423 50.53681374 C-69.9314549 50.52023295 -68.14028137 50.50866431 -66.3490963 50.50238609 C-47.88355272 50.43116387 -31.92814975 46.97850318 -18 34 C-17.34 34 -16.68 34 -16 34 C-15.73832031 33.43410156 -15.47664063 32.86820313 -15.20703125 32.28515625 C-13.89772431 29.80637127 -12.35895758 27.68711143 -10.6875 25.4375 C-5.10091162 17.52316646 -1.71592262 9.51557089 0 0 Z " fill="#FDFDFD" transform="translate(499,184)"/>
<path d="M0 0 C43.89 0 87.78 0 133 0 C133 0.33 133 0.66 133 1 C132.21238281 1.13535156 131.42476562 1.27070313 130.61328125 1.41015625 C118.57808955 3.78870893 109.03415247 8.76888331 100 17 C99.34 17 98.68 17 98 17 C97.73832031 17.56589844 97.47664063 18.13179687 97.20703125 18.71484375 C95.89772431 21.19362873 94.35895758 23.31288857 92.6875 25.5625 C85.55306598 35.65475146 81.71681929 46.18782829 81.68115234 58.52734375 C81.67110672 59.33805832 81.6610611 60.14877289 81.65071106 60.98405457 C81.62008443 63.63519653 81.60290159 66.28623849 81.5859375 68.9375 C81.5672093 70.78695524 81.54763467 72.63640209 81.5272522 74.48583984 C81.47609946 79.33216382 81.43638387 84.17851545 81.39910889 89.02496338 C81.35896312 93.97895046 81.30791919 98.93282418 81.2578125 103.88671875 C81.16125294 113.59107381 81.07779304 123.29547634 81 133 C71.1 133 61.2 133 51 133 C50.9906543 130.55376221 50.98130859 128.10752441 50.97167969 125.5871582 C50.93775349 117.46061857 50.88211869 109.3343287 50.81609726 101.20798969 C50.77676426 96.28602675 50.74450675 91.36423893 50.72900391 86.44213867 C50.7137433 81.68269676 50.67913331 76.92373675 50.63169098 72.16451073 C50.61697345 70.3583008 50.60896458 68.55202203 50.60811615 66.74575233 C50.59042138 47.94561693 46.65922076 32.28764979 33.33984375 18.28125 C23.93148071 9.1084887 13.02816 3.20816271 0 1 C0 0.67 0 0.34 0 0 Z " fill="#FDFDFD" transform="translate(184,0)"/>
<path d="M0 0 C1.80174603 0.00373633 3.60349412 0.00658037 5.40524292 0.00857544 C10.116839 0.01616308 14.82830917 0.03576903 19.53985596 0.0579834 C24.35988665 0.07854745 29.17993796 0.08759961 34 0.09765625 C43.43495075 0.11902011 52.8698086 0.15309635 62.3046875 0.1953125 C62.3046875 1.5153125 62.3046875 2.8353125 62.3046875 4.1953125 C61.29372513 4.19895813 60.28276276 4.20260376 59.24116516 4.20635986 C49.66481632 4.24346979 40.0887843 4.30141535 30.51267719 4.37921524 C25.59071425 4.41854824 20.66892643 4.45080575 15.74682617 4.46630859 C10.98738426 4.4815692 6.22842425 4.51617919 1.46919823 4.56362152 C-0.3370117 4.57833905 -2.14329047 4.58634792 -3.94956017 4.58719635 C-19.65575925 4.6019791 -31.63974026 6.74947629 -44.6953125 16.1953125 C-45.7471875 16.9378125 -46.7990625 17.6803125 -47.8828125 18.4453125 C-59.02234235 29.33729724 -65.58546345 42.88772376 -66.0695343 58.5131073 C-66.08409809 60.79148797 -66.08266202 63.07001107 -66.06762695 65.34838867 C-66.07127762 66.60364853 -66.07492828 67.85890839 -66.07868958 69.15220642 C-66.08535257 72.55715458 -66.0787629 75.96154513 -66.06535745 79.36643767 C-66.05393545 82.9496392 -66.05815849 86.53282856 -66.06010437 90.11604309 C-66.06098364 96.12680776 -66.04998142 102.13745885 -66.03149414 108.14819336 C-66.0103032 115.07722948 -66.00682501 122.00609979 -66.0130561 128.93516177 C-66.01876756 135.63180279 -66.01308501 142.32838601 -66.00188255 149.02501869 C-65.99726306 151.8617085 -65.9963511 154.69836264 -65.9984684 157.53505516 C-66.0007168 161.50023863 -65.98618316 165.46526705 -65.9699707 169.43041992 C-65.97244812 170.59480591 -65.97492554 171.75919189 -65.97747803 172.9588623 C-65.8742586 188.82274263 -61.05151023 201.93574204 -50.3828125 213.7578125 C-37.5162935 225.42744601 -25.22952073 230.49208211 -7.94555664 230.50170898 C-6.67301025 230.5100325 -5.40046387 230.51835602 -4.08935547 230.52693176 C-0.61152489 230.54878965 2.8662178 230.55766496 6.3441093 230.56275821 C8.52475618 230.56641501 10.70538052 230.57266215 12.88601875 230.5797596 C20.51655195 230.60423309 28.14701747 230.61729945 35.77758789 230.62084961 C42.85137327 230.62447348 49.92472174 230.65429117 56.99837393 230.69625419 C63.099791 230.73115935 69.20106485 230.74640159 75.30258089 230.74709564 C78.93387225 230.74788224 82.56471893 230.75632991 86.19590569 230.78509331 C105.35519327 230.92748391 122.12140094 230.74146503 138.3046875 219.1953125 C139.3359375 218.4734375 140.3671875 217.7515625 141.4296875 217.0078125 C151.21916922 208.2691791 157.79953257 195.12302769 159.3046875 182.1953125 C159.41564377 179.47510226 159.48835123 176.77721996 159.51000977 174.05688477 C159.51990936 173.27557693 159.52980896 172.4942691 159.54000854 171.68928528 C159.57136693 169.1301263 159.59627845 166.57094881 159.62109375 164.01171875 C159.64168549 162.22809898 159.66268252 160.44448385 159.68406677 158.66087341 C159.73905824 153.98385389 159.78856789 149.30679201 159.83691406 144.62969971 C159.88729727 139.85010035 159.94289524 135.07056192 159.99804688 130.29101562 C160.10534773 120.92583339 160.20685414 111.56059809 160.3046875 102.1953125 C161.6246875 102.1953125 162.9446875 102.1953125 164.3046875 102.1953125 C164.37444584 112.69676379 164.42762934 123.19815921 164.46012402 133.69979572 C164.47572617 138.57704717 164.496864 143.45413914 164.53100586 148.33129883 C164.56379481 153.04512774 164.58158142 157.75880404 164.58931923 162.47273827 C164.59482787 164.26392199 164.60558418 166.05509812 164.62187767 167.8462162 C164.78723962 186.7915328 161.15129304 203.06456826 147.46484375 217.09375 C146.75199219 217.78726563 146.03914062 218.48078125 145.3046875 219.1953125 C144.52931641 220.01902344 144.52931641 220.01902344 143.73828125 220.859375 C139.86369454 224.64291398 135.20748827 226.99614611 130.4296875 229.4453125 C129.76960693 229.7870752 129.10952637 230.12883789 128.42944336 230.48095703 C117.72665074 235.74643191 107.0256901 235.47314542 95.39233398 235.42236328 C93.5782217 235.42179851 91.76410896 235.42211701 89.94999695 235.42324829 C85.04568719 235.42382024 80.14147599 235.41209144 75.23718905 235.39810038 C70.10426256 235.38556674 64.9713336 235.38442044 59.83839417 235.38204956 C50.12761395 235.37584252 40.41687897 235.35944221 30.70611864 235.33935058 C19.64687639 235.31696741 8.58763193 235.30599207 -2.47162735 235.29595971 C-25.21288078 235.2750753 -47.9540941 235.23991443 -70.6953125 235.1953125 C-70.76548889 211.54234659 -70.81834294 187.88939636 -70.85074902 164.2363472 C-70.8661977 153.2530697 -70.88724897 142.269857 -70.92163086 131.28662109 C-70.95159444 121.71021535 -70.97090202 112.13385656 -70.97757798 102.55740523 C-70.98147846 97.48985336 -70.99060335 92.42243577 -71.01250267 87.35492706 C-71.03297786 82.57792467 -71.03912413 77.80111094 -71.03463554 73.02406883 C-71.03545583 71.27786163 -71.04135539 69.53164763 -71.05292892 67.78547859 C-71.17224695 48.8421495 -67.57572279 32.36070802 -53.85546875 18.296875 C-53.14261719 17.60335938 -52.42976563 16.90984375 -51.6953125 16.1953125 C-51.17839844 15.64617187 -50.66148438 15.09703125 -50.12890625 14.53125 C-46.27168662 10.76467 -41.63378661 8.39653972 -36.8828125 5.9453125 C-36.23111084 5.6035498 -35.57940918 5.26178711 -34.90795898 4.90966797 C-23.75548231 -0.60407034 -12.13334232 -0.07429426 0 0 Z " fill="#050607" transform="translate(70.6953125,264.8046875)"/>
<path d="M0 0 C10.37106693 -0.06976373 20.74207727 -0.12294454 31.11333179 -0.15543652 C35.93005015 -0.17103752 40.74660699 -0.19217317 45.56323242 -0.22631836 C50.21870684 -0.25911152 54.87402669 -0.27689479 59.52960777 -0.28463173 C61.29846311 -0.29013963 63.06731078 -0.30089444 64.83609962 -0.31719017 C82.81855828 -0.47614849 98.71154089 3.08837241 112.9140625 14.94140625 C125.53816085 27.40002017 132.08463646 42.5677874 132.24050903 60.14993286 C132.25368875 63.41146572 132.24139881 66.67257134 132.22705078 69.93408203 C132.22648587 71.73848972 132.22680478 73.54289787 132.22793579 75.3473053 C132.22850719 80.22056543 132.21678739 85.09372616 132.20278788 89.96696329 C132.19024498 95.06918738 132.18910722 100.171414 132.18673706 105.27365112 C132.18053273 114.92419105 132.16413611 124.5746854 132.14403808 134.2252053 C132.12164645 145.21675735 132.11067745 156.20831164 132.10064721 167.19988084 C132.07976893 189.79994578 132.04461337 212.39997033 132 235 C108.34703409 235.07017639 84.69408386 235.12303044 61.0410347 235.15543652 C50.0577572 235.1708852 39.0745445 235.19193647 28.09130859 235.22631836 C18.51490285 235.25628194 8.93854406 235.27558952 -0.63790727 235.28226548 C-5.70545914 235.28616596 -10.77287673 235.29529085 -15.84038544 235.31719017 C-20.61738783 235.33766536 -25.39420156 235.34381163 -30.17124367 235.33932304 C-31.91745087 235.34014333 -33.66366487 235.34604289 -35.40983391 235.35761642 C-54.353163 235.47693445 -70.83460448 231.88041029 -84.8984375 218.16015625 C-85.59195312 217.44730469 -86.28546875 216.73445312 -87 216 C-87.82371094 215.22462891 -87.82371094 215.22462891 -88.6640625 214.43359375 C-92.44760148 210.55900704 -94.80083361 205.90280077 -97.25 201.125 C-97.5917627 200.46491943 -97.93352539 199.80483887 -98.28564453 199.12475586 C-102.03171676 191.51035542 -103.31070036 183.9774487 -103.22705078 175.54272461 C-103.22734283 174.75137115 -103.22763489 173.9600177 -103.22793579 173.14468384 C-103.22655733 170.56378697 -103.21106717 167.98318934 -103.1953125 165.40234375 C-103.19157708 163.59916847 -103.18873261 161.79599115 -103.18673706 159.99281311 C-103.17914227 155.27298263 -103.15952995 150.55327746 -103.1373291 145.83349609 C-103.11678067 141.00685317 -103.10771619 136.18018978 -103.09765625 131.35351562 C-103.07627974 121.90228904 -103.04219458 112.45115499 -103 103 C-101.68 103 -100.36 103 -99 103 C-98.98786972 104.45459877 -98.98786972 104.45459877 -98.97549438 105.93858337 C-98.89780893 115.10405119 -98.81001415 124.26937465 -98.71247292 133.43465328 C-98.66265399 138.14594042 -98.6163233 142.85720669 -98.578125 147.56860352 C-98.54108947 152.12042338 -98.4946813 156.67206229 -98.44193649 161.22372627 C-98.42348917 162.95510222 -98.40834607 164.68651682 -98.39665604 166.41795158 C-98.26910325 184.66655802 -95.35086768 199.85291173 -82.5625 213.625 C-81.2940625 214.800625 -81.2940625 214.800625 -80 216 C-79.53464844 216.47050781 -79.06929688 216.94101562 -78.58984375 217.42578125 C-67.92853368 227.56319402 -54.36654462 230.29853394 -40.25024414 230.30639648 C-38.97769775 230.31472 -37.70515137 230.32304352 -36.39404297 230.33161926 C-32.91621239 230.35347715 -29.4384697 230.36235246 -25.9605782 230.36744571 C-23.77993132 230.37110251 -21.59930698 230.37734965 -19.41866875 230.3844471 C-11.78813555 230.40892059 -4.15767003 230.42198695 3.47290039 230.42553711 C10.54668577 230.42916098 17.62003424 230.45897867 24.69368643 230.50094169 C30.7951035 230.53584685 36.89637735 230.55108909 42.99789339 230.55178314 C46.62918475 230.55256974 50.26003143 230.56101741 53.89121819 230.58978081 C73.05050577 230.73217141 89.81671344 230.54615253 106 219 C107.03125 218.278125 108.0625 217.55625 109.125 216.8125 C118.69776095 208.26732356 125.87901724 194.80238732 127 182 C127.15059701 177.82070068 127.15714284 173.64386537 127.16113281 169.4621582 C127.16609772 168.21244736 127.17106262 166.96273651 127.17617798 165.67515564 C127.18824119 162.26163453 127.19573288 158.84817432 127.20018864 155.43463922 C127.20313124 153.29624375 127.20723824 151.1578535 127.21169281 149.01946068 C127.2253493 142.31215642 127.23502477 135.60486426 127.2388947 128.89754707 C127.24336995 121.18610094 127.26090075 113.47483255 127.2898953 105.76344043 C127.31159597 99.78184127 127.32160344 93.80029182 127.32293582 87.81865376 C127.32397794 84.25579067 127.32975787 80.69309505 127.34775543 77.13027382 C127.36748076 73.14834642 127.36291397 69.16678555 127.35644531 65.18481445 C127.37026749 63.44263138 127.37026749 63.44263138 127.3843689 61.66525269 C127.29589594 44.18688437 121.25395579 30.394001 109 18 C98.13063235 9.29179317 85.79481269 4.90416188 71.97509766 4.79467773 C70.80335495 4.77982834 70.80335495 4.77982834 69.60794067 4.76467896 C67.04334473 4.73326243 64.47873031 4.7083856 61.9140625 4.68359375 C60.12901344 4.66300705 58.34396907 4.64201014 56.55892944 4.62062073 C51.87367563 4.56557721 47.18837912 4.51609019 42.50305176 4.46777344 C37.71683986 4.41742859 32.93068953 4.36181046 28.14453125 4.30664062 C18.7630735 4.19927597 9.38156216 4.09778332 0 4 C0 2.68 0 1.36 0 0 Z " fill="#050506" transform="translate(368,265)"/>
<path d="M0 0 C23.8006206 -0.07015716 47.60122564 -0.12302105 71.4019289 -0.15543652 C82.45361607 -0.17088927 93.5052389 -0.19194835 104.55688477 -0.22631836 C114.19224456 -0.25626945 123.82755775 -0.27558657 133.46296281 -0.28226548 C138.56234045 -0.28616806 143.66158476 -0.29530648 148.76091957 -0.31719017 C153.56664571 -0.33764555 158.37218437 -0.34381557 163.17794991 -0.33932304 C164.93586498 -0.34014421 166.69378672 -0.34605568 168.45166397 -0.35761642 C187.09319215 -0.4741361 203.17641437 3.45304919 216.8984375 16.83984375 C217.59195313 17.55269531 218.28546875 18.26554687 219 19 C219.54914063 19.51691406 220.09828125 20.03382812 220.6640625 20.56640625 C224.46455742 24.45835693 226.80288504 29.13290598 229.25 33.9375 C229.5917627 34.60595947 229.93352539 35.27441895 230.28564453 35.96313477 C230.60903809 36.62369873 230.93243164 37.2842627 231.265625 37.96484375 C231.55211914 38.5487085 231.83861328 39.13257324 232.13378906 39.73413086 C234.544508 46.04018567 235.29130973 51.84859804 235.22705078 58.52734375 C235.22734283 59.33805832 235.22763489 60.14877289 235.22793579 60.98405457 C235.22655431 63.63531601 235.21104944 66.2862883 235.1953125 68.9375 C235.19157816 70.78694505 235.18873318 72.6363921 235.18673706 74.48583984 C235.17913377 79.3322708 235.15951392 84.17858016 235.1373291 89.02496338 C235.11679922 93.97886511 235.10772012 98.93278666 235.09765625 103.88671875 C235.07626469 113.59119899 235.04216898 123.29558935 235 133 C233.68 133 232.36 133 231 133 C230.99413376 132.01187317 230.98826752 131.02374634 230.98222351 130.00567627 C230.92477192 120.64979101 230.85189505 111.29413319 230.76428509 101.93848038 C230.71973994 97.12973996 230.68044974 92.32108118 230.65356445 87.51220703 C230.6273722 82.86305629 230.58685975 78.21422243 230.53681374 73.56526947 C230.52025192 71.80009685 230.50867163 70.03486956 230.50238609 68.26963043 C230.43010298 49.81941672 227.45948311 33.89495726 214.21875 19.9921875 C204.07265397 10.88213649 191.004099 4.91386225 177.3167572 4.85282898 C176.20821381 4.84567368 175.09967041 4.83851837 173.95753479 4.83114624 C172.75588181 4.82845734 171.55422882 4.82576843 170.31616211 4.82299805 C169.03894287 4.81642685 167.76172363 4.80985565 166.44580078 4.80308533 C162.22299434 4.78213692 158.00018793 4.77168945 153.77734375 4.76171875 C152.31713913 4.75766731 150.85693468 4.75355028 149.39673042 4.74936867 C142.53191285 4.73033478 135.66710588 4.71610174 128.80226701 4.7077567 C120.9090896 4.69800019 113.01619379 4.67171483 105.12311548 4.63125581 C99.00224522 4.60097062 92.88145511 4.58627603 86.76051146 4.58297569 C83.11426574 4.58063874 79.46832144 4.57185757 75.82215691 4.54651451 C71.74446139 4.51862847 67.6673848 4.52310252 63.58959961 4.5300293 C62.40211624 4.51721924 61.21463287 4.50440918 59.99116516 4.49121094 C46.94548465 4.57149832 36.49862232 8.40414246 26 16 C24.948125 16.7425 23.89625 17.485 22.8125 18.25 C11.67297015 29.14198474 5.10984905 42.69241126 4.6257782 58.3177948 C4.61121441 60.59617547 4.61265048 62.87469857 4.62768555 65.15307617 C4.62403488 66.40833603 4.62038422 67.66359589 4.61662292 68.95689392 C4.60995993 72.36184208 4.6165496 75.76623263 4.62995505 79.17112517 C4.64137705 82.7543267 4.63715401 86.33751606 4.63520813 89.92073059 C4.63432886 95.93149526 4.64533108 101.94214635 4.66381836 107.95288086 C4.6850093 114.88191698 4.68848749 121.81078729 4.6822564 128.73984927 C4.67654494 135.43649029 4.68222749 142.13307351 4.69342995 148.82970619 C4.69804944 151.666396 4.6989614 154.50305014 4.6968441 157.33974266 C4.6945957 161.30492613 4.70912934 165.26995455 4.7253418 169.23510742 C4.72286438 170.39949341 4.72038696 171.56387939 4.71783447 172.7635498 C4.8210539 188.62743013 9.64380227 201.74042954 20.3125 213.5625 C31.3456591 223.56931872 43.21452272 230.27512495 58.41381836 230.31884766 C59.62967117 230.33391609 59.62967117 230.33391609 60.87008667 230.34928894 C63.52666571 230.37997038 66.18314467 230.39711391 68.83984375 230.4140625 C70.69072827 230.43278627 72.54160437 230.45236058 74.39247131 230.4727478 C79.24702981 230.52394729 84.10161595 230.56363805 88.95629883 230.60089111 C93.91689828 230.64100734 98.87738397 230.69206485 103.83789062 230.7421875 C113.55851369 230.83880245 123.27920118 230.9232532 133 231 C133 232.32 133 233.64 133 235 C122.64620392 235.06980407 112.2924647 235.12296473 101.93848038 235.15543652 C97.12963746 235.17102884 92.32095667 235.19214825 87.51220703 235.22631836 C82.86321185 235.25914295 78.21437168 235.27690127 73.56526947 235.28463173 C71.80003167 235.29013408 70.03480143 235.30087768 68.26963043 235.31719017 C49.94285069 235.47967092 33.56847221 232.14531881 19.0859375 220.05859375 C6.91632635 208.04850934 -0.08946044 192.99248054 -0.24050903 175.93235779 C-0.25372554 172.6506393 -0.2413761 169.36934319 -0.22705078 166.08764648 C-0.22648601 164.2735342 -0.22680451 162.45942146 -0.22793579 160.64530945 C-0.22850774 155.74099969 -0.21677894 150.83678849 -0.20278788 145.93250155 C-0.19025424 140.79957506 -0.18910794 135.6666461 -0.18673706 130.53370667 C-0.18053002 120.82292645 -0.16412971 111.11219147 -0.14403808 101.40143114 C-0.12165491 90.34218889 -0.11067957 79.28294443 -0.10064721 68.22368515 C-0.0797628 45.48243172 -0.04460193 22.7412184 0 0 Z " fill="#070603" transform="translate(0,0)"/>
<path d="M0 0 C1.02619446 0.01705994 2.05238892 0.03411987 3.10968018 0.05169678 C29.42441944 0.51935485 29.42441944 0.51935485 39.5625 6.25 C40.19671875 6.60006104 40.8309375 6.95012207 41.484375 7.31079102 C56.25797143 15.77451849 66.17730387 28.95197469 71.05297852 45.19555664 C72.31607087 50.39513035 72.35306638 55.53847491 72.4140625 60.8671875 C72.43351929 61.93947601 72.45297607 63.01176453 72.47302246 64.11654663 C72.53335972 67.59845179 72.57979839 71.08036794 72.625 74.5625 C72.66219983 76.98796186 72.69980029 79.41341761 72.73779297 81.83886719 C72.84210705 88.78824689 72.92563301 95.73774112 73 102.6875 C73.01450195 103.99720764 73.01450195 103.99720764 73.02929688 105.33337402 C73.13211089 114.95686496 73.12107223 124.57726738 73.02282715 134.2008667 C72.99692864 137.02207252 72.97935709 139.84328026 72.96191406 142.66455078 C72.92531055 148.17518069 72.86461369 153.68518755 72.79046631 159.19543457 C72.76385434 161.36862495 72.74337415 163.5419006 72.72955322 165.71520996 C72.58819221 185.85582629 69.78265447 202.21846901 55.33984375 217.40625 C43.70938771 228.74545922 29.84126661 234.85433123 13.61328125 235.13671875 C12.67885193 235.15909103 11.74442261 235.18146332 10.78167725 235.20451355 C7.62539131 235.27404785 4.46917475 235.32638119 1.3125 235.375 C0.20993866 235.39363098 -0.89262268 235.41226196 -2.02859497 235.43145752 C-24.41539943 235.78964639 -46.80724157 235.7583767 -69.19570923 235.59927368 C-73.00871243 235.57256914 -76.82152349 235.55661266 -80.63461304 235.54989624 C-85.19739314 235.54071219 -89.75935075 235.50626293 -94.32183075 235.45369911 C-96.01187254 235.43797331 -97.7020136 235.43034115 -99.39212799 235.43172264 C-117.39591 235.43327172 -132.0391624 230.57152049 -145.3125 217.8125 C-155.01809964 207.58476367 -162.0609558 194.48251352 -162.16062927 180.07513428 C-162.1706749 178.93160492 -162.18072052 177.78807556 -162.19107056 176.6098938 C-162.19690155 175.3590097 -162.20273254 174.10812561 -162.20874023 172.81933594 C-162.21828443 171.48511513 -162.22817584 170.15089677 -162.23838806 168.81668091 C-162.26973578 164.43510866 -162.29004939 160.05351774 -162.30859375 155.671875 C-162.31189107 154.92416242 -162.31518839 154.17644983 -162.31858563 153.40607929 C-162.3493874 146.34042765 -162.37606995 139.2747715 -162.39300442 132.20907211 C-162.41484229 123.20565256 -162.45666171 114.20283455 -162.52644199 105.19965529 C-162.57394571 98.85203479 -162.59797357 92.50457491 -162.6052013 86.15678239 C-162.61012187 82.37554938 -162.62485158 78.59499459 -162.6649456 74.81395721 C-162.87580314 53.93909436 -162.24715027 37.26846917 -148 20.6875 C-147.39542969 19.97207031 -146.79085937 19.25664062 -146.16796875 18.51953125 C-138.75711647 10.45340361 -128.6950036 4.21503015 -118 1.6875 C-117.28590973 1.51731354 -116.57181946 1.34712708 -115.83609009 1.17178345 C-112.40162331 0.58532274 -109.10749784 0.51570101 -105.62255859 0.46630859 C-104.89325134 0.45483386 -104.16394409 0.44335913 -103.41253662 0.43153667 C-100.9912126 0.394883 -98.56986146 0.36519137 -96.1484375 0.3359375 C-94.4322581 0.31226758 -92.71608178 0.28837277 -90.99990845 0.26426697 C-86.40722799 0.20175869 -81.81448987 0.14679284 -77.22167969 0.09476089 C-74.37970894 0.06255337 -71.53775555 0.02903758 -68.69580078 -0.00454712 C-45.79340069 -0.2698514 -22.90144008 -0.43620533 0 0 Z M-146.3203125 24.56640625 C-154.86347389 36.11145479 -158.76912308 47.18537202 -158.63110352 61.625 C-158.63625821 62.96542299 -158.64355106 64.30583915 -158.65278625 65.64624023 C-158.6711121 69.24566357 -158.65848309 72.84433472 -158.63869596 76.44372559 C-158.62215038 80.23592812 -158.63114422 84.02808889 -158.63621521 87.8203125 C-158.6407186 94.18501616 -158.62497606 100.54942426 -158.59692383 106.9140625 C-158.56487975 114.24021622 -158.56489337 121.56583729 -158.5821386 128.89202881 C-158.59808136 135.98114606 -158.59122064 143.0700707 -158.57420158 150.15917969 C-158.56738418 153.15727969 -158.56830818 156.15522281 -158.57574654 159.15332031 C-158.58348939 162.69295075 -158.57102761 166.23198555 -158.54389763 169.77151489 C-158.53388788 171.66658175 -158.54311264 173.56172079 -158.55322266 175.45678711 C-158.40899176 188.60799679 -154.6624487 199.09012255 -147 209.6875 C-146.278125 210.71875 -145.55625 211.75 -144.8125 212.8125 C-136.90709251 221.72545942 -125.65673307 228.2623146 -114 230.6875 C-112.13113969 230.78788864 -110.25914413 230.83518175 -108.38763428 230.84812927 C-107.24410492 230.8581749 -106.10057556 230.86822052 -104.9223938 230.87857056 C-103.6715097 230.88440155 -102.42062561 230.89023254 -101.13183594 230.89624023 C-99.79761513 230.90578443 -98.46339677 230.91567584 -97.12918091 230.92588806 C-92.74760866 230.95723578 -88.36601774 230.97754939 -83.984375 230.99609375 C-82.86280612 231.00103973 -82.86280612 231.00103973 -81.71857929 231.00608563 C-74.65292765 231.0368874 -67.5872715 231.06356995 -60.52157211 231.08050442 C-51.51815256 231.10234229 -42.51533455 231.14416171 -33.51215529 231.21394199 C-27.16453479 231.26144571 -20.81707491 231.28547357 -14.46928239 231.2927013 C-10.68804938 231.29762187 -6.90749459 231.31235158 -3.12645721 231.3524456 C25.13848888 231.7137419 25.13848888 231.7137419 49 217.6875 C49.886875 216.8625 50.77375 216.0375 51.6875 215.1875 C52.450625 214.3625 53.21375 213.5375 54 212.6875 C54.48082031 212.18863281 54.96164062 211.68976563 55.45703125 211.17578125 C65.6273691 200.13002191 68.45812021 186.87093757 68.40405273 172.27416992 C68.41091599 170.96710587 68.41777924 169.66004181 68.42485046 168.31336975 C68.44267059 164.75527896 68.44163436 161.19743628 68.43590808 157.63931441 C68.43279899 154.65514106 68.43892788 151.6710142 68.44494683 148.68684751 C68.45895479 141.63844103 68.45746288 134.59015585 68.44604492 127.54174805 C68.43457612 120.3025916 68.44862685 113.06380619 68.4754414 105.82469863 C68.49769301 99.58058246 68.50421435 93.33658193 68.49836498 87.09242898 C68.49501563 83.37585675 68.49727375 79.65952202 68.51461601 75.94298363 C68.53314545 71.79142645 68.51880147 67.64057716 68.50170898 63.48901367 C68.51137695 62.27976227 68.52104492 61.07051086 68.53100586 59.82461548 C68.41877847 46.72653592 64.64925076 36.22917815 57 25.6875 C56.58878906 25.10355469 56.17757812 24.51960938 55.75390625 23.91796875 C48.47853188 14.37690687 35.75412692 6.85858431 24 4.6875 C19.54034375 4.38583215 15.08869457 4.39375132 10.62011719 4.39697266 C9.26748791 4.3909808 7.91486204 4.38417374 6.5622406 4.37661743 C2.90292387 4.35901515 -0.7562992 4.35426445 -4.41565418 4.35298586 C-6.70681788 4.3515602 -8.99795807 4.34728273 -11.28911591 4.34199142 C-19.29643758 4.32350887 -27.30369285 4.31531841 -35.31103516 4.31689453 C-42.7518034 4.31809483 -50.19228105 4.29701008 -57.63297582 4.2654072 C-64.04004367 4.23917316 -70.44701705 4.22853024 -76.85413814 4.22980535 C-80.67242716 4.23031298 -84.49045784 4.22474127 -88.30869293 4.20344925 C-91.90397908 4.18394649 -95.49876368 4.18402334 -99.09406853 4.19848251 C-101.02540928 4.20153813 -102.95675074 4.18497797 -104.88801575 4.16760254 C-121.19544526 4.28407269 -136.07081945 11.84944265 -146.3203125 24.56640625 Z " fill="#160F0F" transform="translate(295,132.3125)"/>
<path d="M0 0 C0.33 0 0.66 0 1 0 C1.13535156 0.63164062 1.27070313 1.26328125 1.41015625 1.9140625 C5.42877437 18.6141881 14.35810618 32.68657143 29 42 C36.40963418 46.03568755 43.61444387 48.9021168 52 50 C52 50.33 52 50.66 52 51 C34.84 51 17.68 51 0 51 C0 34.17 0 17.34 0 0 Z " fill="#FBFCFC" transform="translate(0,449)"/>
<path d="M0 0 C17.16 0 34.32 0 52 0 C52 0.33 52 0.66 52 1 C50.94425781 1.20302734 50.94425781 1.20302734 49.8671875 1.41015625 C38.08377308 3.97912519 27.85073328 8.75272581 19 17 C18.34 17 17.68 17 17 17 C16.73832031 17.56589844 16.47664063 18.13179687 16.20703125 18.71484375 C14.89772431 21.19362873 13.35895758 23.31288857 11.6875 25.5625 C5.88900066 33.78912094 2.44755643 42.03994755 1 52 C0.67 52 0.34 52 0 52 C0 34.84 0 17.68 0 0 Z " fill="#FCFCFB" transform="translate(0,0)"/>
<path d="M0 0 C0.33 0 0.66 0 1 0 C1 16.83 1 33.66 1 51 C-15.83 51 -32.66 51 -50 51 C-50 50.67 -50 50.34 -50 50 C-49.05253906 49.79697266 -49.05253906 49.79697266 -48.0859375 49.58984375 C-31.39432579 45.57327436 -17.30060749 36.64447732 -8 22 C-4.16325895 14.87588961 -1.35287021 7.98193423 0 0 Z " fill="#FCFBFC" transform="translate(499,449)"/>
<path d="M0 0 C16.83 0 33.66 0 51 0 C51 16.5 51 33 51 50 C49.46320123 46.92640247 48.3736519 44.22667003 47.3125 41 C44.33269487 32.68556246 40.25686343 25.24314223 34 19 C34 18.34 34 17.68 34 17 C33.43410156 16.73832031 32.86820312 16.47664063 32.28515625 16.20703125 C29.80637127 14.89772431 27.68711143 13.35895758 25.4375 11.6875 C17.52316646 6.10091162 9.51557089 2.71592262 0 1 C0 0.67 0 0.34 0 0 Z " fill="#FCFCFB" transform="translate(449,0)"/>
</svg>
